# xmcd
#
# Track frame offsets: 
#        150
#        17608
#        41675
#        63236
#        80901
#        92135
#        114441
#        133325
#        154397
#        161245
#        187726
#        209176
#        228210
#        257435
#        278383
#        293034
#        304938
#        310902
#
# Disc length: 4487 seconds
#
# Revision: 0
# Processed by: cddbd v1.5.2PL0 Copyright (c) Steve Scherf et al.
# Submitted via: ExactAudioCopyFreeDBPlugin 1.0
#
DISCID=fd118512
DTITLE=Bonnie Raitt - All Star Broadcast 1973
DYEAR=2018
DGENRE=Blues
TTITLE0=Special Delivery Blues
TTITLE1=That Song About The Midway
TTITLE2=Any Day Woman
TTITLE3=Write Me A Few More Lines, Kokomo Blues
TTITLE4=Intoductions
TTITLE5=You Got To Know How
TTITLE6=Nothing Seems To Matter
TTITLE7=Love Me Like A Man
TTITLE8=Chat
TTITLE9=Under The Falling Sky
TTITLE10=Love Has No Pride
TTITLE11=Introduction Arthur Big Boy Crudup
TTITLE12=Mean Old World
TTITLE13=Look On Yonder's Wall
TTITLE14=That's All Roght
TTITLE15=Short Love
TTITLE16=More Chat
TTITLE17=I Almost Lost My Mind
EXTD=
EXTT0=
EXTT1=
EXTT2=
EXTT3=
EXTT4=
EXTT5=
EXTT6=
EXTT7=
EXTT8=
EXTT9=
EXTT10=
EXTT11=
EXTT12=
EXTT13=
EXTT14=
EXTT15=
EXTT16=
EXTT17=
PLAYORDER=
